<?xml version="1.0" encoding="utf-8"?>
<!-- Generator: Adobe Illustrator 16.0.0, SVG Export Plug-In . SVG Version: 6.00 Build 0)  -->
<!DOCTYPE svg PUBLIC "-//W3C//DTD SVG 1.1//EN" "http://www.w3.org/Graphics/SVG/1.1/DTD/svg11.dtd">
<svg version="1.1" id="Layer_1" xmlns="http://www.w3.org/2000/svg" xmlns:xlink="http://www.w3.org/1999/xlink" x="0px" y="0px"
	 width="595.28px" height="595.275px" viewBox="0 0 595.28 595.275" enable-background="new 0 0 595.28 595.275"
	 xml:space="preserve">
<g>
	<path fill="#005EA5" d="M91.61,182.308v369.68c0,23.902,19.419,43.323,43.381,43.323h325.327c23.934,0,43.354-19.421,43.354-43.323
		v-369.68H91.61z M181.479,549.421h-45.891V228.199h45.891V549.421z M274.217,549.421h-45.891V228.199h45.891V549.421z
		 M365.043,549.421h-45.891V228.199h45.891V549.421z M457.781,549.421h-45.893V228.199h45.893V549.421z"/>
	<path fill="#005EA5" d="M527.096,91.482h-114.25v-48.13C412.846,19.42,393.428,0,369.465,0H225.788
		c-23.934,0-43.352,19.42-43.352,43.352v48.13H68.187c-12.429,0-22.467,10.055-22.467,22.468c0,12.414,10.039,22.467,22.467,22.467
		h458.909c12.398,0,22.467-10.053,22.467-22.467C549.562,101.537,539.494,91.482,527.096,91.482z M228.356,45.592h140.181v45.891
		H228.356V45.592z"/>
</g>
</svg>
